<svg xmlns="http://www.w3.org/2000/svg" viewBox="0 0 300 250"><g id="Layer_2" data-name="Layer 2"><g id="rect"><rect width="300" height="250" fill="none"/></g><g id="Frame_4" data-name="Frame 4"><g id="CTA"><g id="cta-outline"><path d="M269,191v23H177V191h92m1-1H176v25h94V190Z" fill="#fff"/></g><g id="cta-txt"><path d="M194.82,198.06h3.06a5.66,5.66,0,0,1,1.56.18,2.6,2.6,0,0,1,1,.49,1.53,1.53,0,0,1,.49.72,2.94,2.94,0,0,1,.14.91,2,2,0,0,1-.22.94,1.76,1.76,0,0,1-.81.75,3.43,3.43,0,0,1,.63.42,2,2,0,0,1,.38.47,1.72,1.72,0,0,1,.19.52,2.29,2.29,0,0,1,0,.52,3,3,0,0,1-.16,1,1.94,1.94,0,0,1-.53.83,2.6,2.6,0,0,1-1,.54,4.59,4.59,0,0,1-1.5.21h-3.26Zm3.26,3.37a1.41,1.41,0,0,0,1-.26,1.05,1.05,0,0,0,.26-.75.82.82,0,0,0-.34-.75,2.27,2.27,0,0,0-1.15-.22h-1.29v2Zm-.06,3.74a3,3,0,0,0,.74-.08,1.24,1.24,0,0,0,.47-.25.84.84,0,0,0,.25-.37,1.49,1.49,0,0,0,.07-.49,1.1,1.1,0,0,0-.3-.83,1.52,1.52,0,0,0-1.05-.29h-1.67v2.31Z" fill="#fff"/><path d="M202.48,198.06h1.78v5.06a2.69,2.69,0,0,0,.38,1.61,1.79,1.79,0,0,0,2.54,0,2.77,2.77,0,0,0,.38-1.61v-5.06h1.77v5.06a5.06,5.06,0,0,1-.24,1.66,2.92,2.92,0,0,1-.67,1.14,2.82,2.82,0,0,1-1.08.65,5.08,5.08,0,0,1-2.89,0,3,3,0,0,1-1.08-.66,2.92,2.92,0,0,1-.66-1.16,5.41,5.41,0,0,1-.23-1.66Z" fill="#fff"/><path d="M213.1,203.1l-2.95-5h2L214,201.5l1.89-3.44h1.89l-2.88,5v3.47H213.1Z" fill="#fff"/><path d="M221.39,198.06H223l3.5,5.57v-5.57h1.73v8.51h-1.59L223.12,201v5.53h-1.73Z" fill="#fff"/><path d="M233.75,206.78a4.42,4.42,0,0,1-1.71-.31,3.48,3.48,0,0,1-1.27-.89,3.9,3.9,0,0,1-.8-1.41,6.32,6.32,0,0,1,0-3.72,3.82,3.82,0,0,1,.81-1.4,3.54,3.54,0,0,1,1.28-.9,4.5,4.5,0,0,1,1.69-.31,4.56,4.56,0,0,1,1.7.31,3.42,3.42,0,0,1,1.27.9,3.92,3.92,0,0,1,.79,1.4,5.68,5.68,0,0,1,.28,1.86,6,6,0,0,1-.27,1.86,3.88,3.88,0,0,1-.79,1.41,3.32,3.32,0,0,1-1.27.89A4.38,4.38,0,0,1,233.75,206.78Zm0-1.52a1.94,1.94,0,0,0,1.67-.77,4.65,4.65,0,0,0,0-4.35,1.91,1.91,0,0,0-1.67-.77,1.89,1.89,0,0,0-1.67.77,4.58,4.58,0,0,0,0,4.35A1.91,1.91,0,0,0,233.74,205.26Z" fill="#fff"/><path d="M238.27,198.06h2l1.37,5.91,1.39-5.86h1.89l1.45,5.86,1.29-5.91h1.9l-2.31,8.51h-1.73l-1.58-6.3-1.54,6.3h-1.68Z" fill="#fff"/></g></g></g></g></svg>