<svg xmlns="http://www.w3.org/2000/svg" viewBox="0 0 300 250"><g id="Layer_2" data-name="Layer 2"><g id="Frame_4" data-name="Frame 4"><g id="rect"><rect width="300" height="250" fill="none"/></g><g id="you_deserve_it." data-name="you deserve it."><path d="M180.54,104.17V98.93l-5.86-9h5.5l3,5,3-5h5.36l-5.86,9v5.24Z" fill="#fff"/><path d="M208.52,97a7.59,7.59,0,0,1-1,4,6.69,6.69,0,0,1-3,2.6,12.78,12.78,0,0,1-9.37,0,6.59,6.59,0,0,1-3-2.56,8.29,8.29,0,0,1,0-8.06,6.64,6.64,0,0,1,3-2.6,12.78,12.78,0,0,1,9.37,0,6.64,6.64,0,0,1,3,2.56A7.56,7.56,0,0,1,208.52,97Zm-5.36,0a3.54,3.54,0,0,0-5.87-2.5,3.39,3.39,0,0,0,2.49,5.88A3.08,3.08,0,0,0,203.16,97Z" fill="#fff"/><path d="M220.92,89.89h5.16v7.84a6.56,6.56,0,0,1-1.87,5.14q-1.87,1.66-5.77,1.66t-5.77-1.66a6.53,6.53,0,0,1-1.88-5.14V89.89H216v8.26a2.23,2.23,0,0,0,.58,1.72,2.73,2.73,0,0,0,1.9.54,2.7,2.7,0,0,0,1.89-.54,2.24,2.24,0,0,0,.59-1.72Z" fill="#fff"/><path d="M176,127.17V112.89h7q4.47,0,6.74,1.79A6.43,6.43,0,0,1,192,120a6.93,6.93,0,0,1-1,3.84,6.6,6.6,0,0,1-3.07,2.45,12.73,12.73,0,0,1-4.93.85Zm7.06-4a4.22,4.22,0,0,0,2.79-.78,3,3,0,0,0,.91-2.38,2.87,2.87,0,0,0-.9-2.32,4.17,4.17,0,0,0-2.74-.76h-2v6.24Z" fill="#fff"/><path d="M194.28,127.17V112.89H207.2v3.66h-7.88v1.6h7.48v3.64h-7.48v1.72h8.38l-.42,3.66Z" fill="#fff"/><path d="M218.74,117.45a1.93,1.93,0,0,0-.81-1.08,3.2,3.2,0,0,0-1.57-.32,4.26,4.26,0,0,0-1.57.23.73.73,0,0,0-.55.67.53.53,0,0,0,.25.48,2.63,2.63,0,0,0,.93.28l3.24.54a8.83,8.83,0,0,1,4.15,1.53,3.7,3.7,0,0,1,1.25,3q0,4.76-7.58,4.76-7.2,0-7.66-5.18h5.06c.21,1.11,1.08,1.66,2.62,1.66S219,123.66,219,123a.58.58,0,0,0-.34-.53,3.07,3.07,0,0,0-1-.31l-2.58-.4a9.4,9.4,0,0,1-4.38-1.59,3.66,3.66,0,0,1-1.42-3,3.76,3.76,0,0,1,2-3.35,10.21,10.21,0,0,1,5.41-1.21,9.44,9.44,0,0,1,5,1.13,4.44,4.44,0,0,1,2.07,3.37Z" fill="#fff"/><path d="M226.1,127.17V112.89H239v3.66h-7.88v1.6h7.48v3.64h-7.48v1.72h8.38l-.42,3.66Z" fill="#fff"/><path d="M251.71,127.17l-2.65-4.36h-2.47v4.36h-4.8V112.89h7.59q6.74,0,6.74,4.9a4.79,4.79,0,0,1-.58,2.44,4,4,0,0,1-1.83,1.6l3.49,5.34Zm-2.63-7.94a3.17,3.17,0,0,0,1.67-.32,1.18,1.18,0,0,0,.49-1.08,1.15,1.15,0,0,0-.49-1,3.09,3.09,0,0,0-1.63-.31h-2.53v2.76Z" fill="#fff"/><path d="M262.36,127.17l-5.48-14.28h5.62l3.06,9.42,3.08-9.42h5.5l-5.5,14.28Z" fill="#fff"/><path d="M275.62,127.17V112.89h12.92v3.66h-7.88v1.6h7.48v3.64h-7.48v1.72H289l-.42,3.66Z" fill="#fff"/><path d="M176,150.17V135.89h5.16v14.28Z" fill="#fff"/><path d="M188,150.17V140h-5.06v-4.14h15.28V140h-5.06v10.14Z" fill="#fff"/><path d="M198.18,150.17v-4.52h4.56v4.52Z" fill="#fff"/></g></g></g></svg>