<svg xmlns="http://www.w3.org/2000/svg" viewBox="0 0 300 250"><g id="Layer_2" data-name="Layer 2"><g id="rect"><rect width="300" height="250" fill="none"/></g><g id="Frame_2" data-name="Frame 2"><g id="You_probably_deserve_a_Dr_Pepper_" data-name="You probably deserve a  Dr Pepper!"><path d="M24.28,108.88v-7.34l-8.2-12.65h7.7l4.2,7,4.23-7h7.5l-8.2,12.65v7.34Z" fill="#fff"/><path d="M63.46,98.88A10.55,10.55,0,0,1,62,104.47a9.31,9.31,0,0,1-4.21,3.64,15.88,15.88,0,0,1-6.67,1.27,15.76,15.76,0,0,1-6.45-1.21,9.34,9.34,0,0,1-4.21-3.59,11.59,11.59,0,0,1,0-11.28,9.39,9.39,0,0,1,4.22-3.64,15.86,15.86,0,0,1,6.66-1.28,15.78,15.78,0,0,1,6.46,1.22A9.34,9.34,0,0,1,62,93.19,10.46,10.46,0,0,1,63.46,98.88Zm-7.51,0a4.72,4.72,0,0,0-1.24-3.5,4.78,4.78,0,0,0-3.49-1.23,4.3,4.3,0,0,0-4.73,4.73,4.31,4.31,0,0,0,4.73,4.74,4.74,4.74,0,0,0,3.49-1.24A4.69,4.69,0,0,0,56,98.88Z" fill="#fff"/><path d="M80.81,88.89H88v11q0,4.88-2.62,7.2t-8.08,2.32q-5.46,0-8.08-2.32t-2.61-7.2v-11h7.22v11.56a3.16,3.16,0,0,0,.81,2.41,5,5,0,0,0,5.32,0,3.16,3.16,0,0,0,.81-2.41Z" fill="#fff"/><path d="M99.57,108.88v-20h10.11c3.18,0,5.54.59,7.1,1.78a7.35,7.35,0,0,1-.07,10.82c-1.61,1.18-4.06,1.76-7.36,1.76h-2.83v5.63ZM109.15,98a4.35,4.35,0,0,0,2.3-.45,1.7,1.7,0,0,0,.67-1.51,1.65,1.65,0,0,0-.69-1.49,4.19,4.19,0,0,0-2.22-.45h-2.69V98Z" fill="#fff"/><path d="M135.86,108.88l-3.72-6.1h-3.45v6.1H122v-20h10.62q9.43,0,9.43,6.86a6.66,6.66,0,0,1-.8,3.42,5.73,5.73,0,0,1-2.56,2.23l4.87,7.48Zm-3.69-11.12a4.48,4.48,0,0,0,2.35-.44,1.69,1.69,0,0,0,.67-1.52,1.61,1.61,0,0,0-.67-1.47,4.59,4.59,0,0,0-2.3-.43h-3.53v3.86Z" fill="#fff"/><path d="M169,98.88a10.46,10.46,0,0,1-1.45,5.59,9.31,9.31,0,0,1-4.21,3.64,18,18,0,0,1-13.12.06,9.34,9.34,0,0,1-4.21-3.59,11.55,11.55,0,0,1,0-11.28,9.31,9.31,0,0,1,4.21-3.64,17.84,17.84,0,0,1,13.12-.06,9.34,9.34,0,0,1,4.21,3.59A10.46,10.46,0,0,1,169,98.88Zm-7.51,0a4.31,4.31,0,1,0-1.24,3.5A4.72,4.72,0,0,0,161.48,98.88Z" fill="#fff"/><path d="M172.12,108.88v-20h11q8.72,0,8.71,5.18,0,2.82-3.13,4.2a6.25,6.25,0,0,1,2.92,1.8,4.41,4.41,0,0,1,1,2.93,4.92,4.92,0,0,1-2.28,4.38,12.17,12.17,0,0,1-6.65,1.5Zm10.75-12.4c1.48,0,2.22-.5,2.22-1.49a1.17,1.17,0,0,0-.54-1.1,3.48,3.48,0,0,0-1.76-.33h-4.12v2.92Zm.17,7.73a4,4,0,0,0,2.12-.43,1.49,1.49,0,0,0,.63-1.34,1.44,1.44,0,0,0-.66-1.33,4.26,4.26,0,0,0-2.14-.4h-4.32v3.5Z" fill="#fff"/><path d="M211,108.88,210,105.94h-8.37l-1,2.94h-7.28l8.29-20h8.62l8.29,20Zm-5.23-14.62-2.33,6.39h4.62Z" fill="#fff"/><path d="M220.81,108.88v-20h11q8.7,0,8.7,5.18,0,2.82-3.13,4.2a6.25,6.25,0,0,1,2.92,1.8,4.41,4.41,0,0,1,1,2.93,4.92,4.92,0,0,1-2.28,4.38,12.15,12.15,0,0,1-6.65,1.5Zm10.76-12.4c1.47,0,2.21-.5,2.21-1.49a1.18,1.18,0,0,0-.53-1.1,3.55,3.55,0,0,0-1.77-.33h-4.11v2.92Zm.16,7.73a4,4,0,0,0,2.12-.43,1.49,1.49,0,0,0,.63-1.34,1.44,1.44,0,0,0-.66-1.33,4.26,4.26,0,0,0-2.14-.4h-4.31v3.5Z" fill="#fff"/><path d="M244.67,108.88v-20h7.22v14.19h10.76l-.68,5.8Z" fill="#fff"/><path d="M267.27,108.88v-7.34l-8.21-12.65h7.7l4.2,7,4.23-7h7.5l-8.2,12.65v7.34Z" fill="#fff"/><path d="M18,139.88v-20h9.8c4.18,0,7.33.83,9.44,2.51s3.16,4.16,3.16,7.48a9.64,9.64,0,0,1-1.45,5.38,9.19,9.19,0,0,1-4.3,3.43,18,18,0,0,1-6.9,1.19Zm9.89-5.63a5.88,5.88,0,0,0,3.9-1.09,4.15,4.15,0,0,0,1.28-3.33,4,4,0,0,0-1.26-3.25A5.85,5.85,0,0,0,28,125.52H25.1v8.73Z" fill="#fff"/><path d="M43.52,139.88v-20H61.61V125h-11v2.24H61.05v5.1H50.58v2.41H62.31l-.59,5.12Z" fill="#fff"/><path d="M77.76,126.27a2.64,2.64,0,0,0-1.13-1.51,4.41,4.41,0,0,0-2.2-.45,6.05,6.05,0,0,0-2.2.32c-.51.22-.77.53-.77.94a.76.76,0,0,0,.35.68,4.51,4.51,0,0,0,1.3.39l4.54.75c2.71.45,4.64,1.16,5.81,2.15a5.13,5.13,0,0,1,1.75,4.18q0,6.66-10.61,6.66-10.08,0-10.73-7.25H71c.3,1.55,1.52,2.33,3.67,2.33s3.44-.5,3.44-1.49a.82.82,0,0,0-.46-.74,4.56,4.56,0,0,0-1.47-.43l-3.61-.56A13.11,13.11,0,0,1,66.39,130a5.14,5.14,0,0,1-2-4.24,5.26,5.26,0,0,1,2.73-4.69,14.32,14.32,0,0,1,7.57-1.7,13,13,0,0,1,7,1.59,6.14,6.14,0,0,1,2.9,4.71Z" fill="#fff"/><path d="M88.07,139.88v-20h18.08V125h-11v2.24h10.47v5.1H95.12v2.41h11.73l-.58,5.12Z" fill="#fff"/><path d="M123.93,139.88l-3.72-6.1h-3.44v6.1h-6.72v-20h10.61q9.44,0,9.43,6.86a6.76,6.76,0,0,1-.79,3.42,5.9,5.9,0,0,1-2.57,2.24l4.88,7.47Zm-3.69-11.12a4.48,4.48,0,0,0,2.35-.44,1.69,1.69,0,0,0,.67-1.52,1.61,1.61,0,0,0-.67-1.47,4.57,4.57,0,0,0-2.3-.43h-3.52v3.86Z" fill="#fff"/><path d="M138.83,139.88l-7.67-20H139l4.28,13.19,4.31-13.19h7.7l-7.7,20Z" fill="#fff"/><path d="M157.39,139.88v-20h18.09V125h-11v2.24h10.47v5.1H164.45v2.41h11.73l-.59,5.12Z" fill="#fff"/><path d="M202.73,139.88l-1.07-2.94h-8.37l-1,2.94H185l8.29-20h8.63l8.28,20Zm-5.24-14.62-2.32,6.39h4.62Z" fill="#fff"/><path d="M18,170.88v-20h9.8q6.27,0,9.44,2.5c2.11,1.68,3.16,4.17,3.16,7.49a9.64,9.64,0,0,1-1.45,5.38,9.19,9.19,0,0,1-4.3,3.43,18,18,0,0,1-6.9,1.19Zm9.89-5.63a5.88,5.88,0,0,0,3.9-1.09,4.15,4.15,0,0,0,1.28-3.33,4,4,0,0,0-1.26-3.25A5.85,5.85,0,0,0,28,156.52H25.1v8.73Z" fill="#fff"/><path d="M57.41,170.88l-3.73-6.1H50.24v6.1H43.52v-20H54.13q9.43,0,9.44,6.86a6.76,6.76,0,0,1-.8,3.42,5.87,5.87,0,0,1-2.56,2.24l4.87,7.47Zm-3.7-11.12a4.45,4.45,0,0,0,2.35-.44,1.69,1.69,0,0,0,.67-1.52,1.61,1.61,0,0,0-.67-1.47,4.52,4.52,0,0,0-2.29-.43H50.24v3.86Z" fill="#fff"/><path d="M74.85,170.88v-20H85q4.76,0,7.1,1.78A7.37,7.37,0,0,1,92,163.49c-1.61,1.18-4.06,1.76-7.37,1.76H81.79v5.63ZM84.43,160a4.31,4.31,0,0,0,2.29-.45,1.67,1.67,0,0,0,.67-1.51,1.64,1.64,0,0,0-.68-1.49,4.21,4.21,0,0,0-2.23-.45H81.79V160Z" fill="#fff"/><path d="M97.25,170.88v-20h18.09V156h-11v2.24h10.47v5.1H104.31v2.41H116l-.59,5.12Z" fill="#fff"/><path d="M119.23,170.88v-20h10.11q4.75,0,7.1,1.78a7.37,7.37,0,0,1-.07,10.82c-1.61,1.18-4.06,1.76-7.37,1.76h-2.83v5.63ZM128.81,160a4.31,4.31,0,0,0,2.29-.45,1.67,1.67,0,0,0,.67-1.51,1.64,1.64,0,0,0-.68-1.49,4.21,4.21,0,0,0-2.23-.45h-2.69V160Z" fill="#fff"/><path d="M141.63,170.88v-20h10.11q4.75,0,7.1,1.78a7.37,7.37,0,0,1-.07,10.82c-1.61,1.18-4.06,1.76-7.37,1.76h-2.83v5.63ZM151.21,160a4.31,4.31,0,0,0,2.29-.45,1.67,1.67,0,0,0,.67-1.51,1.64,1.64,0,0,0-.68-1.49,4.21,4.21,0,0,0-2.23-.45h-2.69V160Z" fill="#fff"/><path d="M164,170.88v-20h18.09V156h-11v2.24h10.47v5.1H171.09v2.41h11.73l-.59,5.12Z" fill="#fff"/><path d="M199.9,170.88l-3.73-6.1h-3.44v6.1H186v-20h10.61q9.44,0,9.44,6.86a6.76,6.76,0,0,1-.8,3.42,5.87,5.87,0,0,1-2.56,2.24l4.87,7.47Zm-3.7-11.12a4.45,4.45,0,0,0,2.35-.44,1.7,1.7,0,0,0,.68-1.52,1.62,1.62,0,0,0-.68-1.47,4.52,4.52,0,0,0-2.29-.43h-3.53v3.86Z" fill="#fff"/><path d="M210,164.38l-.7-13.49h7.47l-.7,13.49Zm-.12,6.5v-5.26h6.3v5.26Z" fill="#fff"/></g></g></g></svg>