<svg xmlns="http://www.w3.org/2000/svg" viewBox="0 0 300 250"><g id="Layer_2" data-name="Layer 2"><g id="rect"><rect width="300" height="250" fill="none"/></g><g id="Frame_3" data-name="Frame 3"><g id="right_right_" data-name="right? right!"><path d="M35.37,122.88l-3.73-6.1H28.2v6.1H21.48v-20H32.09q9.44,0,9.44,6.86a6.76,6.76,0,0,1-.8,3.42,5.79,5.79,0,0,1-2.56,2.23L43,122.88Zm-3.7-11.12a4.45,4.45,0,0,0,2.35-.44,1.7,1.7,0,0,0,.68-1.52,1.62,1.62,0,0,0-.68-1.47,4.52,4.52,0,0,0-2.29-.43H28.2v3.86Z" fill="#fff"/><path d="M45.31,122.88v-20h7.22v20Z" fill="#fff"/><path d="M72.22,116H68.41V111H78.82v9.69a19.13,19.13,0,0,1-10.19,2.68q-6.27,0-9.63-2.68a9.3,9.3,0,0,1-3.36-7.7,10.88,10.88,0,0,1,1.41-5.62,9.33,9.33,0,0,1,4.16-3.69,15.15,15.15,0,0,1,6.55-1.31,13.24,13.24,0,0,1,7.26,1.8,7.76,7.76,0,0,1,3.52,5l-7.25.61a2.54,2.54,0,0,0-1.2-1.48,5.36,5.36,0,0,0-2.47-.45,4.62,4.62,0,0,0-3.5,1.22A5.26,5.26,0,0,0,63,112.83a5,5,0,0,0,1.28,3.86c.86.79,2.29,1.18,4.29,1.18a13.52,13.52,0,0,0,3.67-.42Z" fill="#fff"/><path d="M97.05,122.88v-7.31H89.63v7.31H82.41v-20h7.22v6.72h7.42v-6.72h7.23v20Z" fill="#fff"/><path d="M113.8,122.88V108.69h-7.09v-5.8H128.1v5.8H121v14.19Z" fill="#fff"/><path d="M135.38,116.38v-.53a4.81,4.81,0,0,1,.61-2.53,7.45,7.45,0,0,1,2.17-2.14,17.11,17.11,0,0,0,1.77-1.4,1.13,1.13,0,0,0,.38-.79.91.91,0,0,0-.47-.85,3.25,3.25,0,0,0-1.52-.27,3.1,3.1,0,0,0-1.79.46,2.09,2.09,0,0,0-.81,1.42l-6.3-.53a6.78,6.78,0,0,1,2.73-5,11.12,11.12,0,0,1,6.57-1.68A11.54,11.54,0,0,1,145,104a4.51,4.51,0,0,1,2.22,4,4.73,4.73,0,0,1-.81,2.71,9.48,9.48,0,0,1-2.63,2.39,7.15,7.15,0,0,0-1.82,1.51,2.47,2.47,0,0,0-.48,1.51v.28Zm-.14,6.5v-5.26h6.3v5.26Z" fill="#fff"/><path d="M35.37,153.88l-3.73-6.1H28.2v6.1H21.48v-20H32.09q9.44,0,9.44,6.86a6.76,6.76,0,0,1-.8,3.42,5.87,5.87,0,0,1-2.56,2.24L43,153.88Zm-3.7-11.12a4.45,4.45,0,0,0,2.35-.44,1.7,1.7,0,0,0,.68-1.52,1.62,1.62,0,0,0-.68-1.47,4.52,4.52,0,0,0-2.29-.43H28.2v3.86Z" fill="#fff"/><path d="M45.31,153.88v-20h7.22v20Z" fill="#fff"/><path d="M72.22,147H68.41v-5H78.82v9.69a19.13,19.13,0,0,1-10.19,2.68q-6.27,0-9.63-2.68a9.29,9.29,0,0,1-3.36-7.7,10.88,10.88,0,0,1,1.41-5.62,9.33,9.33,0,0,1,4.16-3.69,15.15,15.15,0,0,1,6.55-1.31,13.24,13.24,0,0,1,7.26,1.8,7.76,7.76,0,0,1,3.52,5l-7.25.61a2.54,2.54,0,0,0-1.2-1.48,5.36,5.36,0,0,0-2.47-.45,4.62,4.62,0,0,0-3.5,1.22A5.26,5.26,0,0,0,63,143.83a5,5,0,0,0,1.28,3.86c.86.79,2.29,1.18,4.29,1.18a13.52,13.52,0,0,0,3.67-.42Z" fill="#fff"/><path d="M97.05,153.88v-7.31H89.63v7.31H82.41v-20h7.22v6.72h7.42v-6.72h7.23v20Z" fill="#fff"/><path d="M113.8,153.88v-14.2h-7.09v-5.79H128.1v5.79H121v14.2Z" fill="#fff"/><path d="M130.71,147.38l-.7-13.49h7.47l-.7,13.49Zm-.11,6.5v-5.26h6.3v5.26Z" fill="#fff"/></g></g></g></svg>